<svg width="70" height="70" viewBox="0 0 70 70" fill="none" xmlns="http://www.w3.org/2000/svg">
<path d="M55.7955 31.7922C55.4887 32.0987 55.0727 32.2709 54.639 32.2709C54.2053 32.2709 53.7893 32.0987 53.4825 31.7922L36.6366 14.9491V59.0032C36.6366 59.4372 36.4641 59.8535 36.1572 60.1604C35.8503 60.4673 35.434 60.6398 35 60.6398C34.5659 60.6398 34.1497 60.4673 33.8428 60.1604C33.5358 59.8535 33.3634 59.4372 33.3634 59.0032V14.9491L16.5175 31.7922C16.2073 32.0813 15.7969 32.2387 15.3729 32.2312C14.9489 32.2238 14.5444 32.052 14.2446 31.7521C13.9447 31.4523 13.773 31.0478 13.7655 30.6238C13.758 30.1998 13.9154 29.7894 14.2045 29.4792L33.8435 9.8402C34.1503 9.53372 34.5663 9.36157 35 9.36157C35.4337 9.36157 35.8496 9.53372 36.1565 9.8402L55.7955 29.4792C56.102 29.7861 56.2741 30.202 56.2741 30.6357C56.2741 31.0694 56.102 31.4854 55.7955 31.7922Z" fill="#09BD97"/>
</svg>
