<svg width="108" height="107" viewBox="0 0 108 107" fill="none" xmlns="http://www.w3.org/2000/svg">
<path fill-rule="evenodd" clip-rule="evenodd" d="M32.2275 16.7602C37.9946 11.0575 45.8256 7.84615 54 7.84615C62.1744 7.84615 70.0053 11.0575 75.7724 16.7602C81.5381 22.4614 84.7692 30.1846 84.7692 38.2284V43.0133C84.1987 43.3408 83.6676 43.7429 83.1914 44.2137C81.7441 45.6449 80.923 47.5951 80.923 49.6379V68.6537C80.923 70.6964 81.7441 72.6467 83.1914 74.0778C83.6676 74.5487 84.1986 74.9507 84.7692 75.2783V78.1616C84.7692 81.1621 83.5642 84.0486 81.405 86.1837C79.9974 87.5755 78.2592 88.5733 76.3687 89.0997C75.7087 87.1623 74.6033 85.3842 73.1188 83.9163C70.591 81.4168 67.1717 80.0202 63.6154 80.0202H52.0769C48.5206 80.0202 45.1013 81.4168 42.5735 83.9163C40.0443 86.4172 38.6154 89.8185 38.6154 93.3743C38.6154 96.93 40.0443 100.331 42.5735 102.832C45.1013 105.332 48.5206 106.728 52.0769 106.728H63.6154C67.1717 106.728 70.591 105.332 73.1188 102.832C74.7859 101.184 75.9749 99.1442 76.5918 96.9271C80.4332 96.2513 84.0089 94.4268 86.8136 91.6534C90.4248 88.0826 92.4615 83.2303 92.4615 78.1616V76.303H96.3077C99.354 76.303 102.284 75.1068 104.451 72.9639C106.62 70.8195 107.846 67.9019 107.846 64.8505V53.441C107.846 50.3896 106.62 47.472 104.451 45.3277C102.284 43.1848 99.354 41.9886 96.3077 41.9886H92.4615V38.2284C92.4615 28.1164 88.3987 18.4273 81.1811 11.2904C73.9649 4.15488 64.1868 0.153839 54 0.153839C43.8132 0.153839 34.0351 4.15488 26.8189 11.2904C19.6013 18.4273 15.5385 28.1164 15.5385 38.2284V41.9886H11.6923C8.64594 41.9886 5.71579 43.1848 3.54867 45.3277C1.38009 47.472 0.153809 50.3896 0.153809 53.441V64.8505C0.153809 67.9019 1.38009 70.8195 3.54867 72.9639C5.71579 75.1068 8.64594 76.303 11.6923 76.303H19.3846C21.4108 76.303 23.3627 75.5075 24.8085 74.0778C26.2558 72.6467 27.0769 70.6964 27.0769 68.6537V49.6379C27.0769 47.5951 26.2558 45.6449 24.8085 44.2137C24.3324 43.7429 23.8013 43.3408 23.2308 43.0133V38.2284C23.2308 30.1846 26.4619 22.4614 32.2275 16.7602ZM19.3649 49.6809C19.3714 49.6809 19.378 49.6809 19.3846 49.6809L19.3846 68.6107H11.6923C10.6583 68.6107 9.67536 68.2041 8.9573 67.4941C8.24071 66.7855 7.84612 65.8337 7.84612 64.8505V53.441C7.84612 52.4578 8.24071 51.506 8.9573 50.7974C9.67536 50.0874 10.6583 49.6809 11.6923 49.6809H19.3649ZM88.6023 49.6809C88.6014 49.682 88.6007 49.6829 88.6 49.6835C88.5981 49.6854 88.598 49.6847 88.6013 49.6834C88.6042 49.6822 88.6082 49.6811 88.6132 49.6809C88.6096 49.6809 88.6059 49.6809 88.6023 49.6809ZM88.6351 49.6809H96.3077C97.3416 49.6809 98.3246 50.0874 99.0426 50.7974C99.7592 51.506 100.154 52.4578 100.154 53.441V64.8505C100.154 65.8337 99.7592 66.7855 99.0426 67.4941C98.3246 68.2041 97.3416 68.6107 96.3077 68.6107H88.6153L88.6154 49.6809M88.6153 68.6107V68.6537C88.6153 68.6282 88.6047 68.6127 88.6 68.608C88.5981 68.6062 88.598 68.6068 88.6013 68.6082C88.6046 68.6095 88.6093 68.6107 88.6153 68.6107ZM69.3846 93.3861C69.3846 93.3821 69.3846 93.3782 69.3846 93.3743C69.3846 93.3704 69.3846 93.3665 69.3846 93.3626C69.3815 91.8792 68.7846 90.4485 67.7102 89.386C66.6315 88.3194 65.1593 87.7125 63.6154 87.7125H52.0769C50.533 87.7125 49.0608 88.3194 47.9821 89.386C46.9049 90.4512 46.3077 91.8867 46.3077 93.3743C46.3077 94.8618 46.9049 96.2973 47.9821 97.3625C49.0608 98.4291 50.533 99.036 52.0769 99.036H63.6154C65.1593 99.036 66.6315 98.4291 67.7102 97.3625C68.7845 96.3001 69.3814 94.8694 69.3846 93.3861ZM46.3077 30.6221C46.3077 28.4979 44.5857 26.776 42.4615 26.776C40.3374 26.776 38.6154 28.4979 38.6154 30.6221V42.0316C38.6154 44.1558 40.3374 45.8778 42.4615 45.8778C44.5857 45.8778 46.3077 44.1558 46.3077 42.0316V30.6221ZM69.3846 30.6221C69.3846 28.4979 67.6626 26.776 65.5385 26.776C63.4143 26.776 61.6923 28.4979 61.6923 30.6221V42.0316C61.6923 44.1558 63.4143 45.8778 65.5385 45.8778C67.6626 45.8778 69.3846 44.1558 69.3846 42.0316V30.6221ZM46.3077 57.2442C46.3077 55.1201 44.5857 53.3981 42.4615 53.3981C40.3374 53.3981 38.6154 55.1201 38.6154 57.2442C38.6154 61.5084 41.1399 64.5096 44.1264 66.2553C47.0281 67.9513 50.63 68.6777 54 68.6777C57.37 68.6777 60.9719 67.9513 63.8735 66.2553C66.8601 64.5096 69.3846 61.5084 69.3846 57.2442C69.3846 55.1201 67.6626 53.3981 65.5385 53.3981C63.4143 53.3981 61.6923 55.1201 61.6923 57.2442C61.6923 58.0383 61.3322 58.8307 59.9918 59.6142C58.5666 60.4472 56.3992 60.9854 54 60.9854C51.6008 60.9854 49.4334 60.4472 48.0082 59.6142C46.6678 58.8307 46.3077 58.0383 46.3077 57.2442Z" fill="#009BA6"/>
</svg>
