<svg width="128" height="102" viewBox="0 0 128 102" fill="none" xmlns="http://www.w3.org/2000/svg">
<path d="M22.2688 0C16.9998 0 12.725 4.2748 12.725 9.54375V19.0875H3.18125C1.43156 19.0875 0 20.5191 0 22.2688C0 24.0184 1.43156 25.45 3.18125 25.45H54.0813C55.8309 25.45 57.2625 26.8816 57.2625 28.6313C57.2625 30.3809 55.8309 31.8125 54.0813 31.8125H9.54375C7.79406 31.8125 6.3625 33.2441 6.3625 34.9938C6.3625 36.7434 7.79406 38.175 9.54375 38.175H47.7188C49.4684 38.175 50.9 39.6066 50.9 41.3563C50.9 43.1059 49.4684 44.5375 47.7188 44.5375H3.18125C1.43156 44.5375 0 45.9691 0 47.7188C0 49.4684 1.43156 50.9 3.18125 50.9H41.3563C43.1059 50.9 44.5375 52.3316 44.5375 54.0813C44.5375 55.8309 43.1059 57.2625 41.3563 57.2625H12.725V82.7125C12.725 93.2504 21.2746 101.8 31.8125 101.8C42.3504 101.8 50.9 93.2504 50.9 82.7125H76.35C76.35 93.2504 84.8996 101.8 95.4375 101.8C105.975 101.8 114.525 93.2504 114.525 82.7125H120.888C124.407 82.7125 127.25 79.8693 127.25 76.35C127.25 72.8307 124.407 69.9875 120.888 69.9875V47.1819C120.888 43.8018 119.555 40.5609 117.169 38.175L101.8 22.8056C99.4141 20.4196 96.1732 19.0875 92.7931 19.0875H82.7125V9.54375C82.7125 4.2748 78.4377 0 73.1688 0H22.2688ZM108.163 47.1819V50.9H82.7125V31.8125H92.7931L108.163 47.1819ZM31.8125 73.1688C34.3437 73.1688 36.7712 74.1742 38.561 75.9641C40.3508 77.7539 41.3563 80.1813 41.3563 82.7125C41.3563 85.2437 40.3508 87.6712 38.561 89.461C36.7712 91.2508 34.3437 92.2563 31.8125 92.2563C29.2813 92.2563 26.8539 91.2508 25.0641 89.461C23.2743 87.6712 22.2688 85.2437 22.2688 82.7125C22.2688 80.1813 23.2743 77.7539 25.0641 75.9641C26.8539 74.1742 29.2813 73.1688 31.8125 73.1688ZM85.8938 82.7125C85.8938 80.1813 86.8993 77.7539 88.689 75.9641C90.4789 74.1742 92.9063 73.1688 95.4375 73.1688C97.9687 73.1688 100.396 74.1742 102.186 75.9641C103.976 77.7539 104.981 80.1813 104.981 82.7125C104.981 85.2437 103.976 87.6712 102.186 89.461C100.396 91.2508 97.9687 92.2563 95.4375 92.2563C92.9063 92.2563 90.4789 91.2508 88.689 89.461C86.8993 87.6712 85.8938 85.2437 85.8938 82.7125Z" fill="#009BA6"/>
</svg>
