<svg width="80" height="96" viewBox="0 0 80 96" fill="none" xmlns="http://www.w3.org/2000/svg">
<path d="M62.9999 46.0001C67.1488 45.9892 71.2431 46.945 74.9583 48.7918C75.3058 46.4883 75.4869 44.1629 75.4999 41.8334V16.8334L37.9999 0.166748L0.499939 16.8334V41.8334C0.499939 64.9584 16.4999 86.5834 37.9999 91.8334C39.4583 91.4584 40.9166 91.0001 42.1666 90.5001C38.0777 85.6229 35.8617 79.4476 35.9166 73.0834C35.9166 65.9005 38.77 59.0117 43.8491 53.9326C48.9282 48.8535 55.817 46.0001 62.9999 46.0001ZM62.9999 56.4168V50.1668L53.6249 59.5418L62.9999 68.9168V62.6668C64.778 62.6633 66.5274 63.115 68.0816 63.9789C69.6357 64.8428 70.9428 66.0902 71.8784 67.6022C72.814 69.1143 73.347 70.8406 73.4267 72.617C73.5063 74.3933 73.1299 76.1604 72.3333 77.7501L76.8749 82.2917C78.5388 79.7816 79.4914 76.8676 79.6317 73.8594C79.7719 70.8512 79.0944 67.8611 77.6712 65.2072C76.2481 62.5532 74.1324 60.3343 71.5491 58.7865C68.9658 57.2387 66.0114 56.4198 62.9999 56.4168ZM62.9999 83.5001C61.2218 83.5036 59.4724 83.0519 57.9183 82.1879C56.3642 81.324 55.0571 80.0767 54.1215 78.5646C53.1858 77.0526 52.6528 75.3262 52.5732 73.5499C52.4936 71.7736 52.87 70.0064 53.6666 68.4167L49.1249 63.8751C47.4611 66.3852 46.5084 69.2992 46.3682 72.3075C46.228 75.3157 46.9055 78.3057 48.3286 80.9597C49.7518 83.6137 51.8675 85.8325 54.4508 87.3803C57.034 88.9281 59.9884 89.747 62.9999 89.7501V96.0001L72.3749 86.6251L62.9999 77.2501V83.5001Z" fill="#009BA6"/>
</svg>
