<svg width="64" height="63" viewBox="0 0 64 63" fill="none" xmlns="http://www.w3.org/2000/svg">
<path d="M32 0C23.4458 0 22.3701 0.039375 19.0091 0.189C15.6481 0.3465 13.3588 0.874125 11.3533 1.65375C9.24957 2.44448 7.34407 3.68482 5.76998 5.28806C4.16662 6.86187 2.92557 8.76582 2.13316 10.8675C1.353 12.8677 0.82107 15.1594 0.667402 18.5062C0.517674 21.8728 0.478271 22.9438 0.478271 31.5039C0.478271 40.0562 0.517674 41.1272 0.667402 44.4859C0.825011 47.8406 1.353 50.1283 2.13316 52.1325C2.94091 54.2036 4.01659 55.9597 5.76998 57.7119C7.51944 59.4641 9.27678 60.543 11.3493 61.3462C13.3588 62.1259 15.6442 62.6574 19.0012 62.811C22.3662 62.9606 23.4379 63 32 63C40.5621 63 41.6299 62.9606 44.9948 62.811C48.348 62.6535 50.6451 62.1259 52.6507 61.3462C54.753 60.5551 56.6572 59.3148 58.23 57.7119C59.9834 55.9597 61.0591 54.2036 61.8669 52.1325C62.6431 50.1283 63.175 47.8406 63.3326 44.4859C63.4823 41.1272 63.5217 40.0562 63.5217 31.5C63.5217 22.9438 63.4823 21.8728 63.3326 18.5102C63.175 15.1594 62.6431 12.8677 61.8669 10.8675C61.0746 8.76576 59.8335 6.86179 58.23 5.28806C56.6564 3.68422 54.7508 2.44379 52.6467 1.65375C50.6372 0.874125 48.344 0.342562 44.9909 0.189C41.626 0.039375 40.5582 0 31.9921 0H32.004H32ZM29.1749 5.67787H32.004C40.4203 5.67787 41.4171 5.70544 44.7387 5.859C47.8121 5.99681 49.4828 6.51262 50.5939 6.94181C52.0636 7.51275 53.1156 8.19787 54.2189 9.30037C55.3222 10.4029 56.0038 11.4502 56.5751 12.9229C57.0086 14.0293 57.5208 15.6988 57.6587 18.7701C57.8124 22.0894 57.8439 23.0856 57.8439 31.4921C57.8439 39.8987 57.8124 40.8988 57.6587 44.2181C57.5208 47.2894 57.0046 48.9549 56.5751 50.0653C56.0698 51.433 55.2632 52.6697 54.215 53.6839C53.1117 54.7864 52.0636 55.4676 50.59 56.0385C49.4867 56.4716 47.816 56.9835 44.7387 57.1252C41.4171 57.2749 40.4203 57.3103 32.004 57.3103C23.5876 57.3103 22.5868 57.2749 19.2652 57.1252C16.1919 56.9835 14.5251 56.4716 13.414 56.0385C12.0448 55.5342 10.8061 54.7296 9.789 53.6839C8.73992 52.6681 7.93207 51.4303 7.42487 50.0614C6.99539 48.9549 6.47922 47.2854 6.34131 44.2142C6.19159 40.8949 6.16006 39.8987 6.16006 31.4842C6.16006 23.0737 6.19159 22.0815 6.34131 18.7622C6.48316 15.6909 6.99539 14.0214 7.42881 12.9111C8.00015 11.4424 8.68574 10.3911 9.789 9.28856C10.8923 8.18606 11.9404 7.50487 13.414 6.93394C14.5251 6.50081 16.1919 5.98894 19.2652 5.84719C22.1731 5.71331 23.3 5.67394 29.1749 5.67V5.67787ZM48.8287 10.9069C48.3319 10.9069 47.8401 11.0046 47.3811 11.1946C46.9222 11.3846 46.5052 11.663 46.154 12.014C45.8027 12.365 45.5241 12.7817 45.334 13.2403C45.1439 13.6989 45.0461 14.1905 45.0461 14.6869C45.0461 15.1833 45.1439 15.6748 45.334 16.1334C45.5241 16.592 45.8027 17.0087 46.154 17.3597C46.5052 17.7107 46.9222 17.9892 47.3811 18.1791C47.8401 18.3691 48.3319 18.4669 48.8287 18.4669C49.8319 18.4669 50.794 18.0686 51.5034 17.3597C52.2128 16.6509 52.6113 15.6894 52.6113 14.6869C52.6113 13.6844 52.2128 12.7229 51.5034 12.014C50.794 11.3051 49.8319 10.9069 48.8287 10.9069ZM32.004 15.3247C29.8568 15.2913 27.7245 15.685 25.731 16.4829C23.7376 17.2809 21.923 18.4672 20.3927 19.9727C18.8625 21.4782 17.6472 23.2729 16.8177 25.2522C15.9882 27.2316 15.561 29.356 15.561 31.502C15.561 33.6479 15.9882 35.7724 16.8177 37.7517C17.6472 39.7311 18.8625 41.5258 20.3927 43.0313C21.923 44.5368 23.7376 45.723 25.731 46.521C27.7245 47.319 29.8568 47.7127 32.004 47.6792C36.2536 47.6129 40.3068 45.8794 43.2886 42.8528C46.2705 39.8262 47.9417 35.7492 47.9417 31.502C47.9417 27.2547 46.2705 23.1777 43.2886 20.1511C40.3068 17.1245 36.2536 15.391 32.004 15.3247ZM32.004 20.9987C34.791 20.9987 37.4639 22.1051 39.4346 24.0744C41.4054 26.0438 42.5125 28.7149 42.5125 31.5C42.5125 34.2851 41.4054 36.9562 39.4346 38.9255C37.4639 40.8949 34.791 42.0013 32.004 42.0013C29.2169 42.0013 26.544 40.8949 24.5733 38.9255C22.6025 36.9562 21.4954 34.2851 21.4954 31.5C21.4954 28.7149 22.6025 26.0438 24.5733 24.0744C26.544 22.1051 29.2169 20.9987 32.004 20.9987Z" fill="#F5F5F5"/>
</svg>
