<svg width="37" height="37" viewBox="0 0 37 37" fill="none" xmlns="http://www.w3.org/2000/svg">
<g clip-path="url(#clip0_61_2)">
<path d="M18.5 0C13.4796 0 12.8483 0.0231091 10.8757 0.110923C8.90312 0.20336 7.55956 0.513021 6.3825 0.97058C5.14784 1.43465 4.02951 2.16261 3.10569 3.10355C2.16468 4.02721 1.43631 5.14463 0.97125 6.3781C0.513375 7.55204 0.201188 8.89699 0.111 10.8613C0.023125 12.8371 0 13.4656 0 18.4896C0 23.5088 0.023125 24.1374 0.111 26.1086C0.2035 28.0775 0.513375 29.4201 0.97125 30.5964C1.44531 31.8119 2.07663 32.8426 3.10569 33.8709C4.13244 34.8993 5.16381 35.5325 6.38019 36.0039C7.55956 36.4615 8.90081 36.7734 10.8711 36.8636C12.8459 36.9514 13.4749 36.9745 18.5 36.9745C23.5251 36.9745 24.1518 36.9514 26.1266 36.8636C28.0946 36.7711 29.4428 36.4615 30.6198 36.0039C31.8537 35.5396 32.9712 34.8117 33.8943 33.8709C34.9234 32.8426 35.5547 31.8119 36.0288 30.5964C36.4843 29.4201 36.7965 28.0775 36.889 26.1086C36.9769 24.1374 37 23.5088 37 18.4872C37 13.4656 36.9769 12.8371 36.889 10.8636C36.7965 8.89699 36.4843 7.55204 36.0288 6.3781C35.5638 5.1446 34.8354 4.02716 33.8943 3.10355C32.9708 2.16226 31.8524 1.43425 30.6175 0.97058C29.4381 0.513021 28.0922 0.201049 26.1243 0.110923C24.1494 0.0231091 23.5228 0 18.4954 0H18.5023H18.5ZM16.8419 3.33233H18.5023C23.4418 3.33233 24.0269 3.3485 25.9763 3.43863C27.7801 3.51951 28.7606 3.82224 29.4127 4.07413C30.2752 4.40921 30.8927 4.8113 31.5402 5.45836C32.1877 6.10541 32.5877 6.72011 32.9231 7.58439C33.1774 8.23376 33.4781 9.21358 33.559 11.0161C33.6492 12.9642 33.6677 13.5488 33.6677 18.4826C33.6677 23.4164 33.6492 24.0034 33.559 25.9515C33.4781 27.754 33.1751 28.7315 32.9231 29.3832C32.6265 30.1859 32.1531 30.9117 31.5379 31.5069C30.8904 32.1539 30.2753 32.5537 29.4104 32.8888C28.7629 33.143 27.7824 33.4434 25.9763 33.5266C24.0269 33.6144 23.4418 33.6352 18.5023 33.6352C13.5628 33.6352 12.9754 33.6144 11.026 33.5266C9.22225 33.4434 8.24406 33.143 7.59194 32.8888C6.78834 32.5928 6.06135 32.1206 5.46444 31.5069C4.84874 30.9107 4.37461 30.1843 4.07694 29.3808C3.82488 28.7315 3.52194 27.7517 3.441 25.9492C3.35313 24.0011 3.33463 23.4164 3.33463 18.478C3.33463 13.5419 3.35313 12.9596 3.441 11.0115C3.52425 9.20896 3.82488 8.22913 4.07925 7.57746C4.41456 6.71549 4.81694 6.09848 5.46444 5.45143C6.11194 4.80437 6.72706 4.40459 7.59194 4.0695C8.24406 3.8153 9.22225 3.51489 11.026 3.43169C12.7326 3.35312 13.394 3.33001 16.8419 3.3277V3.33233ZM28.3767 6.40121C28.0852 6.40121 27.7965 6.45859 27.5271 6.57008C27.2578 6.68157 27.0131 6.84498 26.8069 7.05098C26.6008 7.25699 26.4372 7.50155 26.3257 7.77071C26.2141 8.03986 26.1567 8.32834 26.1567 8.61968C26.1567 8.91101 26.2141 9.19949 26.3257 9.46865C26.4372 9.7378 26.6008 9.98237 26.8069 10.1884C27.0131 10.3944 27.2578 10.5578 27.5271 10.6693C27.7965 10.7808 28.0852 10.8381 28.3767 10.8381C28.9655 10.8381 29.5301 10.6044 29.9465 10.1884C30.3628 9.77233 30.5967 9.20805 30.5967 8.61968C30.5967 8.0313 30.3628 7.46703 29.9465 7.05098C29.5301 6.63494 28.9655 6.40121 28.3767 6.40121ZM18.5023 8.99404C17.2422 8.9744 15.9907 9.20546 14.8208 9.67377C13.6508 10.1421 12.5858 10.8383 11.6877 11.7219C10.7896 12.6055 10.0764 13.6588 9.58957 14.8204C9.10274 15.9821 8.85202 17.229 8.85202 18.4884C8.85202 19.7478 9.10274 20.9947 9.58957 22.1564C10.0764 23.318 10.7896 24.3713 11.6877 25.2549C12.5858 26.1385 13.6508 26.8347 14.8208 27.303C15.9907 27.7713 17.2422 28.0024 18.5023 27.9828C20.9964 27.9439 23.3752 26.9265 25.1253 25.1502C26.8753 23.3739 27.8561 20.9811 27.8561 18.4884C27.8561 15.9957 26.8753 13.6029 25.1253 11.8266C23.3752 10.0503 20.9964 9.03293 18.5023 8.99404ZM18.5023 12.3241C20.138 12.3241 21.7067 12.9734 22.8633 14.1292C24.02 15.285 24.6698 16.8527 24.6698 18.4872C24.6698 20.1218 24.02 21.6894 22.8633 22.8453C21.7067 24.0011 20.138 24.6504 18.5023 24.6504C16.8666 24.6504 15.2979 24.0011 14.1413 22.8453C12.9847 21.6894 12.3349 20.1218 12.3349 18.4872C12.3349 16.8527 12.9847 15.285 14.1413 14.1292C15.2979 12.9734 16.8666 12.3241 18.5023 12.3241Z" fill="#A288A6"/>
</g>
<defs>
<clipPath id="clip0_61_2">
<rect width="37" height="36.9745" fill="white"/>
</clipPath>
</defs>
</svg>
