<svg width="57" height="63" viewBox="0 0 57 63" fill="none" xmlns="http://www.w3.org/2000/svg">
<path d="M32.462 0H40.2636C40.831 2.81531 42.3913 6.36694 45.1298 9.891C47.8091 13.3442 51.3632 15.75 56.1033 15.75V23.625C49.1961 23.625 44.0068 20.4199 40.3424 16.4233V43.3125C40.3424 47.2063 39.187 51.0127 37.0222 54.2503C34.8574 57.4879 31.7805 60.0113 28.1806 61.5014C24.5807 62.9915 20.6195 63.3814 16.7979 62.6217C12.9762 61.8621 9.46582 59.987 6.71057 57.2337C3.95532 54.4803 2.07898 50.9723 1.31881 47.1533C0.558636 43.3343 0.948783 39.3758 2.43991 35.7784C3.93104 32.181 6.45618 29.1062 9.69601 26.9429C12.9358 24.7797 16.7448 23.625 20.6413 23.625V31.5C18.3034 31.5 16.018 32.1928 14.0741 33.4908C12.1302 34.7887 10.6152 36.6336 9.72048 38.7921C8.82581 40.9505 8.59172 43.3256 9.04782 45.617C9.50392 47.9084 10.6297 50.0132 12.2829 51.6652C13.936 53.3172 16.0423 54.4422 18.3353 54.898C20.6282 55.3538 23.005 55.1199 25.1649 54.2258C27.3249 53.3318 29.171 51.8177 30.4699 49.8752C31.7687 47.9326 32.462 45.6488 32.462 43.3125V0Z" fill="#F5F5F5"/>
</svg>
