<svg width="61" height="60" viewBox="0 0 61 60" fill="none" xmlns="http://www.w3.org/2000/svg">
<path d="M52.2262 8.72266C49.4611 5.94645 46.1683 3.74546 42.5396 2.24795C38.9109 0.75043 35.0189 -0.013666 31.0903 0.000184989C14.6287 0.000184989 1.21287 13.3426 1.19779 29.7226C1.19779 34.9688 2.57745 40.0726 5.18221 44.5913L0.956543 60L16.8037 55.8675C21.1877 58.2409 26.0992 59.485 31.0903 59.4862H31.1054C47.5708 59.4862 60.9829 46.1438 60.9979 29.7488C61.0017 25.8415 60.2283 21.9721 58.7221 18.3634C57.216 14.7548 55.0108 11.4783 52.2262 8.72266ZM31.0903 54.4538C26.6385 54.4552 22.2685 53.2635 18.4397 51.0038L17.535 50.4638L8.13377 52.9163L10.6443 43.7925L10.0562 42.8513C7.56761 38.915 6.25143 34.3577 6.2603 29.7076C6.2603 16.1101 17.4069 5.01767 31.1054 5.01767C34.3689 5.01185 37.6012 5.6487 40.6161 6.89151C43.6309 8.13432 46.3687 9.9585 48.6715 12.2589C50.9824 14.5503 52.8143 17.2742 54.0617 20.2735C55.309 23.2728 55.9472 26.488 55.9392 29.7338C55.9241 43.38 44.7776 54.4538 31.0903 54.4538ZM44.7172 35.9513C43.9746 35.5801 40.3069 33.7838 39.617 33.5288C38.931 33.2851 38.4296 33.1576 37.9396 33.9001C37.4382 34.6388 36.0058 36.3226 35.5761 36.8063C35.1464 37.3051 34.7016 37.3613 33.9552 36.9938C33.2126 36.6188 30.8038 35.8388 27.9541 33.3001C25.73 31.3313 24.2411 28.8938 23.7962 28.1551C23.3665 27.4126 23.7548 27.0151 24.128 26.6439C24.4559 26.3139 24.8706 25.7739 25.2438 25.3464C25.6207 24.9189 25.7451 24.6039 25.9901 24.1089C26.2351 23.6064 26.1183 23.1789 25.9336 22.8076C25.7451 22.4364 24.2561 18.7726 23.6266 17.2951C23.0235 15.8364 22.409 16.0389 21.9492 16.0201C21.5194 15.9939 21.0181 15.9939 20.5167 15.9939C20.1381 16.0032 19.7656 16.0904 19.4224 16.2498C19.0793 16.4091 18.7729 16.6374 18.5226 16.9201C17.8366 17.6626 15.9179 19.4589 15.9179 23.1226C15.9179 26.7863 18.5943 30.3076 18.9712 30.8063C19.3406 31.3051 24.226 38.8013 31.7236 42.0263C33.4953 42.795 34.89 43.2488 35.9794 43.5938C37.77 44.1638 39.3871 44.0775 40.6763 43.8938C42.1087 43.6763 45.0904 42.0938 45.7199 40.3576C46.3382 38.6176 46.3382 37.1326 46.1497 36.8213C45.965 36.5063 45.4636 36.3226 44.7172 35.9513Z" fill="#F5F5F5"/>
</svg>
