<svg width="37" height="37" viewBox="0 0 37 37" fill="none" xmlns="http://www.w3.org/2000/svg">
<path d="M30.09 5.1193C28.4672 3.48995 26.5346 2.1982 24.4049 1.31931C22.2753 0.440425 19.9911 -0.00802052 17.6854 0.000108569C8.02414 0.000108569 0.150439 7.83075 0.141589 17.4441C0.141589 20.5231 0.951305 23.5184 2.48003 26.1705L0 35.2138L9.30066 32.7884C11.8736 34.1814 14.7561 34.9115 17.6854 34.9123H17.6943C27.3577 34.9123 35.2292 27.0816 35.2381 17.4595C35.2403 15.1663 34.7864 12.8953 33.9024 10.7774C33.0185 8.65953 31.7243 6.73656 30.09 5.1193ZM17.6854 31.9587C15.0726 31.9596 12.5079 31.2602 10.2608 29.9339L9.72985 29.617L4.21229 31.0564L5.6857 25.7017L5.34058 25.1493C3.88001 22.8391 3.10755 20.1644 3.11276 17.4353C3.11276 9.45498 9.65463 2.94485 17.6943 2.94485C19.6096 2.94143 21.5066 3.3152 23.276 4.0446C25.0454 4.774 26.6522 5.84461 28.0037 7.1947C29.36 8.53953 30.4351 10.1382 31.1672 11.8984C31.8993 13.6587 32.2738 15.5457 32.2691 17.4507C32.2603 25.4596 25.7184 31.9587 17.6854 31.9587ZM25.683 21.0997C25.2472 20.8818 23.0946 19.8276 22.6897 19.678C22.2871 19.5349 21.9928 19.4601 21.7052 19.8958C21.411 20.3294 20.5703 21.3176 20.3181 21.6015C20.0659 21.8942 19.8048 21.9272 19.3668 21.7115C18.931 21.4915 17.5173 21.0337 15.8447 19.5437C14.5395 18.3883 13.6656 16.9577 13.4045 16.5241C13.1523 16.0884 13.3802 15.8551 13.5992 15.6372C13.7917 15.4435 14.0351 15.1266 14.2541 14.8757C14.4753 14.6248 14.5483 14.4399 14.6921 14.1494C14.8359 13.8545 14.7673 13.6036 14.6589 13.3857C14.5483 13.1678 13.6744 11.0176 13.305 10.1505C12.951 9.29432 12.5904 9.41317 12.3205 9.40216C12.0683 9.38675 11.7741 9.38675 11.4798 9.38675C11.2576 9.39225 11.039 9.44338 10.8376 9.53692C10.6362 9.63047 10.4564 9.76442 10.3095 9.93037C9.90684 10.3661 8.78076 11.4203 8.78076 13.5706C8.78076 15.7208 10.3515 17.7874 10.5728 18.0801C10.7896 18.3728 13.6567 22.7724 18.0571 24.6651C19.0969 25.1163 19.9154 25.3826 20.5548 25.5851C21.6057 25.9196 22.5548 25.869 23.3114 25.7611C24.1521 25.6335 25.902 24.7047 26.2715 23.6857C26.6343 22.6645 26.6343 21.793 26.5237 21.6103C26.4153 21.4254 26.121 21.3176 25.683 21.0997Z" fill="#A288A6"/>
</svg>
