<svg width="100" height="47" viewBox="0 0 100 47" fill="none" xmlns="http://www.w3.org/2000/svg">
<path d="M13.4823 42.219C12.0942 42.6461 10.6706 42.8596 9.21127 42.8596C3.87244 42.8596 1.20302 40.208 1.20302 34.9048C1.20302 29.8863 3.87244 27.377 9.21127 27.377C10.6706 27.377 12.0942 27.5906 13.4823 28.0177V28.9787C12.0942 28.5516 10.7417 28.338 9.42483 28.338C4.69106 28.338 2.32417 30.5269 2.32417 34.9048C2.32417 39.5674 4.69106 41.8987 9.42483 41.8987C10.7417 41.8987 12.0942 41.6851 13.4823 41.258V42.219ZM16.7497 42.7529V27.4838H23.0495C25.8115 27.4838 27.1925 28.7046 27.1925 31.1462C27.1925 33.2604 25.694 34.7588 22.6972 35.6415L27.8545 42.7529H26.3169L21.245 35.6736V34.9155C24.3771 34.4528 25.9432 33.2248 25.9432 31.2317C25.9432 29.3951 24.9181 28.4768 22.868 28.4768H17.8709V42.7529H16.7497ZM39.9737 27.4838V28.4448H31.0685V34.5311H39.6106V35.492H31.0685V41.7919H40.1231V42.7529H29.9473V27.4838H39.9737ZM43.1343 42.7529H41.9384L48.8468 27.4838H50.1815L57.122 42.7529H55.7873L53.5236 37.6276H46.6792L47.0103 36.6666H53.1072L49.4448 28.3594L43.1343 42.7529ZM69.081 27.4838V28.4448H63.8489V42.7529H62.7278V28.4448H57.6025V27.4838H69.081ZM71.6009 35.0756C71.6009 39.6243 73.7472 41.8987 78.0396 41.8987C82.2537 41.8987 84.3608 39.6243 84.3608 35.0756C84.3608 30.5839 82.2537 28.338 78.0396 28.338C73.7472 28.338 71.6009 30.5839 71.6009 35.0756ZM70.373 35.1397C70.373 29.9646 72.9285 27.377 78.0396 27.377C83.0723 27.377 85.5887 29.9646 85.5887 35.1397C85.5887 40.2863 83.0723 42.8596 78.0396 42.8596C72.9285 42.8596 70.373 40.2863 70.373 35.1397ZM88.4823 42.7529V27.4838H94.7822C97.5441 27.4838 98.9251 28.7046 98.9251 31.1462C98.9251 33.2604 97.4267 34.7588 94.4298 35.6415L99.5871 42.7529H98.0495L92.9776 35.6736V34.9155C96.1098 34.4528 97.6758 33.2248 97.6758 31.2317C97.6758 29.3951 96.6508 28.4768 94.6007 28.4768H89.6035V42.7529H88.4823Z" fill="black"/>
<path d="M5.96903 6.11525V22.1318H13.5502V25.2016H2.43205V6.11525H5.96903ZM16.9003 17.7005V6.11525H20.4373V17.7005C20.4373 20.7437 21.9944 22.2652 25.1088 22.2652C28.2231 22.2652 29.7803 20.7437 29.7803 17.7005V6.11525H33.3172V17.7005C33.3172 22.7902 30.5811 25.3351 25.1088 25.3351C19.6365 25.3351 16.9003 22.7902 16.9003 17.7005ZM40.8583 6.11525V25.2016H37.3214V6.11525H40.8583ZM54.2855 6.11525L46.1438 15.0178L55.1397 25.2016H50.2414L42.8604 16.2857V13.99L49.9611 6.11525H54.2855ZM56.1541 24.4008V21.1975C58.0672 21.9093 60.2294 22.2652 62.6408 22.2652C65.5683 22.2652 67.032 21.2865 67.032 19.3289C67.032 17.9052 66.1333 17.1933 64.3359 17.1933H61.3461C57.4399 17.1933 55.4868 15.4137 55.4868 11.8545C55.4868 7.93936 58.2674 5.98178 63.8287 5.98178C65.9642 5.98178 67.9885 6.29321 69.9016 6.91608V10.1194C67.9885 9.40754 65.9642 9.05161 63.8287 9.05161C60.6254 9.05161 59.0237 9.98591 59.0237 11.8545C59.0237 13.2782 59.7979 13.99 61.3461 13.99H64.3359C68.4913 13.99 70.569 15.7697 70.569 19.3289C70.569 23.333 67.9263 25.3351 62.6408 25.3351C60.2294 25.3351 58.0672 25.0236 56.1541 24.4008Z" fill="#350000"/>
</svg>
